{"title":"Percy Jackson Sea of Monsters 2013 READNFO CAM XViD UNiQUE","uid":8854679,"size":748474368,"categoryP":"video","categoryS":"movies","magnet":"?xt=urn:btih:f07fbd66153fcfb5af6681dcd71d1157252b2717&amp;dn=Percy+Jackson+Sea+of+Monsters+2013+READNFO+CAM+XViD+UNiQUE&amp;tr=udp%3A%2F%2Ftracker.openbittorrent.com%3A80&amp;tr=udp%3A%2F%2Fopen.demonii.com%3A1337&amp;tr=udp%3A%2F%2Ftracker.coppersurfer.tk%3A6969&amp;tr=udp%3A%2F%2Fexodus.desync.com%3A6969","seeders":0,"leechers":0,"uploader":"TeX","files":3,"time":1377623110,"description":"[img]http://geeknutz.com/wp-content/uploads/2013/04/Percy-Jackson-Sea-of-Monsters-2013-Movie-Title-Banner-600x222.jpg[/img]\n\nFormat : AVI\nFormat/Info : Audio Video Interleave\nFile size : 710 MiB\nDuration : 1h 41mn\nOverall bit rate : 982 Kbps\nWriting application : VirtualDubMod 1.5.10.2 (build 2540/release)\nWriting library : VirtualDubMod build 2540/release\n\nVideo\nID : 0\nFormat : MPEG-4 Visual\nFormat profile : Advanced Simple@L5\nFormat settings, BVOP : 2\nFormat settings, QPel : No\nFormat settings, GMC : No warppoints\nFormat settings, Matrix : Default (H.263)\nMuxing mode : Packed bitstream\nCodec ID : XVID\nCodec ID/Hint : XviD\nDuration : 1h 41mn\nBit rate : 847 Kbps\nWidth : 626 pixels\nHeight : 282 pixels\nDisplay aspect ratio : 2.220\nFrame rate : 29.970 fps\nColor space : YUV\nChroma subsampling : 4:2:0\nBit depth : 8 bits\nScan type : Progressive\nCompression mode : Lossy\nBits/(Pixel*Frame) : 0.160\nStream size : 612 MiB (86%)\nWriting library : XviD 64\n\nAudio\nID : 1\nFormat : MPEG Audio\nFormat version : Version 2\nFormat profile : Layer 3\nCodec ID : 55\nCodec ID/Hint : MP3\nDuration : 1h 37mn\nBit rate mode : Constant\nBit rate : 128 Kbps\nChannel(s) : 2 channels\nSampling rate : 24.0 KHz\nCompression mode : Lossy\nStream size : 89.5 MiB (13%)\nAlignment : Split accross interleaves\nInterleave, duration : 34 ms (1.03 video frame)\nInterleave, preload duration : 500 ms\nWriting library : LAME3.99\n\n\n","torrent":{"xt":"urn:btih:f07fbd66153fcfb5af6681dcd71d1157252b2717","amp;dn":"Percy+Jackson+Sea+of+Monsters+2013+READNFO+CAM+XViD+UNiQUE","amp;tr":["udp%3A%2F%2Ftracker.openbittorrent.com%3A80","udp%3A%2F%2Fopen.demonii.com%3A1337","udp%3A%2F%2Ftracker.coppersurfer.tk%3A6969","udp%3A%2F%2Fexodus.desync.com%3A6969"],"infoHash":"f07fbd66153fcfb5af6681dcd71d1157252b2717","infoHashBuffer":{"type":"Buffer","data":[240,127,189,102,21,63,207,181,175,102,129,220,215,29,17,87,37,43,39,23]},"announce":[],"urlList":[]}}